<svg class="t-sociallinks__svg" role="presentation" width="30px" height="30px" viewBox="0 0 100 100" fill="none" xmlns="http://www.w3.org/2000/svg">
  <path fill-rule="evenodd" clip-rule="evenodd" d="M50 100c27.6142 0 50-22.3858 50-50S77.6142 0 50 0 0 22.3858 0 50s22.3858 50 50 50ZM28.8685 43.3711 27 40.9207s7.8239-9.3426 13.7764-10.5114c4.9324-.9682 6.0055 5.4946 6.963 11.262.268 1.6138.5268 3.1731.8587 4.5 1.4689 5.8705 2.4548 9.2291 3.7371 9.2291 1.2844 0 3.737-3.2737 6.4216-8.2923 2.6889-5.0237-.1157-9.4612-5.3714-6.306C55.4889 28.1909 75.34 25.1587 72.771 39.634c-2.5711 14.4798-16.9323 26.7411-21.2512 29.5414-4.3211 2.8002-8.2616-1.1206-9.6902-4.0869-.7552-1.5611-2.206-6.3062-3.6758-11.1136-1.7153-5.61-3.4564-11.3047-4.1481-12.1225-1.2845-1.5187-5.1372 1.5187-5.1372 1.5187Z" fill="#D69E8E"></path>
</svg>